<?xml version="1.0" encoding="UTF-8"?>
<svg width="1024px" height="1024px" viewBox="0 0 1024 1024" version="1.1" xmlns="http://www.w3.org/2000/svg" xmlns:xlink="http://www.w3.org/1999/xlink">
    <title>MateoLogoSquareWhiteWithBGdark</title>
    <g id="MateoLogoSquareWhiteWithBGdark" stroke="none" stroke-width="1" fill="none" fill-rule="evenodd">
        <g id="6168f4fca9fb28170e2254d2_Logo" transform="translate(0.000000, -3881.000000)" fill="#1C3F3A" fill-rule="nonzero">
            <rect id="Rectangle" x="0" y="3881" width="1024" height="1024"/>
        </g>
        <g id="Group" transform="translate(325.000000, 324.000000)" fill="#FFFFFF" fill-rule="nonzero">
            <path d="M83.1605752,252.738167 C77.2956139,264.329527 85.4541734,278 98.4749453,278 C103.541273,278 108.326615,275.799011 111.636128,271.97369 C130.183141,250.511671 191.00475,175.596363 197.354731,109.663478 C197.754031,106.081663 198,102.448588 198,98.7544929 C198,95.7558138 197.830697,93.0902848 197.587918,90.5849336 C193.048643,35.6020417 143.477743,-6.64536274 85.6843347,0.867328231 C41.4062032,6.63085806 5.71546969,42.9195339 0.660836196,87.1812581 C-5.53949241,141.594137 32.6397138,188.463159 83.7380432,196.344923 C91.6410497,197.575167 96.7839206,205.242048 94.5767606,212.914671 L83.1605752,252.738167 Z" id="Path" transform="translate(99.000000, 139.000000) rotate(-360.000000) translate(-99.000000, -139.000000) "/>
            <path d="M260.158414,351.738167 C254.296624,363.329527 262.45202,377 275.472834,377 C280.539178,377 285.317993,374.799011 288.634059,370.97369 C307.187674,349.511671 368.002937,274.596363 374.361115,208.663478 C374.75403,205.078464 375,201.445389 375,197.754493 C375,194.755814 374.830697,192.090285 374.587916,189.584934 C370.048627,134.602042 320.477568,92.3546373 262.683973,99.8673282 C218.405699,105.630858 182.711579,141.919534 177.660201,186.18946 C171.463041,240.595777 209.642452,287.463159 260.737675,295.344923 C268.640707,296.575167 273.783595,304.242048 271.576428,311.914671 L260.158414,351.738167 Z" id="Path" transform="translate(276.000000, 238.000000) rotate(-540.000000) translate(-276.000000, -238.000000) "/>
        </g>
    </g>
</svg>